<svg xmlns="http://www.w3.org/2000/svg" xmlns:xlink="http://www.w3.org/1999/xlink" viewBox="0 0 575.33 369.48"><defs><style>.cls-1,.cls-42,.cls-47{fill:none;}.cls-2{isolation:isolate;}.cls-3{clip-path:url(#clip-path);}.cls-35,.cls-36,.cls-38,.cls-4{opacity:0.2;}.cls-4{fill:url(#linear-gradient);}.cls-5{clip-path:url(#clip-path-2);}.cls-6{opacity:0.58;}.cls-13,.cls-14,.cls-15,.cls-16,.cls-19,.cls-20,.cls-21,.cls-23,.cls-24,.cls-25,.cls-28,.cls-29,.cls-30,.cls-31,.cls-40,.cls-43,.cls-45,.cls-48,.cls-49,.cls-52,.cls-55,.cls-7{mix-blend-mode:multiply;}.cls-7{fill:url(#radial-gradient);}.cls-8{fill:url(#radial-gradient-2);}.cls-9{clip-path:url(#clip-path-3);}.cls-10{opacity:0.11;}.cls-11{fill:#fff;}.cls-12{opacity:0.1;}.cls-13{fill:url(#radial-gradient-3);}.cls-14{fill:url(#radial-gradient-4);}.cls-15{fill:url(#radial-gradient-5);}.cls-16{fill:url(#radial-gradient-6);}.cls-17{fill:url(#radial-gradient-7);}.cls-18,.cls-39{opacity:0.22;}.cls-19{fill:url(#radial-gradient-8);}.cls-20{fill:url(#radial-gradient-9);}.cls-21{fill:url(#radial-gradient-10);}.cls-22{fill:url(#radial-gradient-11);}.cls-23{fill:url(#radial-gradient-12);}.cls-24{fill:url(#radial-gradient-13);}.cls-25{fill:url(#radial-gradient-14);}.cls-26{fill:url(#radial-gradient-15);}.cls-27{opacity:0.4;}.cls-28{fill:url(#radial-gradient-16);}.cls-29{fill:url(#radial-gradient-17);}.cls-30{fill:url(#radial-gradient-18);}.cls-31{fill:url(#radial-gradient-19);}.cls-32{fill:url(#radial-gradient-20);}.cls-33{fill:url(#linear-gradient-2);}.cls-34{fill:url(#linear-gradient-3);}.cls-35{fill:url(#linear-gradient-4);}.cls-36{fill:url(#linear-gradient-5);}.cls-37{opacity:0.09;fill:url(#linear-gradient-6);}.cls-38{fill:url(#linear-gradient-7);}.cls-39{fill:url(#linear-gradient-8);}.cls-40{fill:url(#radial-gradient-21);}.cls-41{fill:#4d0071;}.cls-42{stroke:#6aecfe;}.cls-42,.cls-47{stroke-miterlimit:10;stroke-width:1.03px;}.cls-43{fill:url(#radial-gradient-22);}.cls-44{fill:#4e0072;}.cls-45{fill:url(#radial-gradient-23);}.cls-46{fill:#860098;}.cls-47{stroke:#f225cb;}.cls-48{fill:url(#radial-gradient-24);}.cls-49{fill:url(#radial-gradient-25);}.cls-50{fill:#370065;}.cls-51,.cls-54,.cls-57,.cls-58,.cls-59{opacity:0.3;mix-blend-mode:color-dodge;}.cls-51{fill:url(#radial-gradient-26);}.cls-52{fill:url(#radial-gradient-27);}.cls-53{fill:#46006f;}.cls-54{fill:url(#radial-gradient-28);}.cls-55{fill:url(#radial-gradient-29);}.cls-56{fill:#650082;}.cls-57{fill:url(#radial-gradient-30);}.cls-58{fill:url(#radial-gradient-31);}.cls-59{fill:url(#radial-gradient-32);}</style><clipPath id="clip-path"><rect class="cls-1" x="-1026.21" y="-96.7" width="750" height="500"/></clipPath><linearGradient id="linear-gradient" x1="-499.3" y1="397.13" x2="-29.29" y2="-128.18" gradientUnits="userSpaceOnUse"><stop offset="0.01" stop-color="#ffebfc"/><stop offset="1" stop-color="#25005b" stop-opacity="0"/></linearGradient><clipPath id="clip-path-2"><rect class="cls-1" x="-938.88" y="-37.44" width="575.33" height="369.48"/></clipPath><radialGradient id="radial-gradient" cx="-251.25" cy="136.43" r="345.47" gradientUnits="userSpaceOnUse"><stop offset="0" stop-color="#25005b"/><stop offset="0.04" stop-color="#3e1e6e"/><stop offset="0.1" stop-color="#664c8c"/><stop offset="0.17" stop-color="#8b77a8"/><stop offset="0.24" stop-color="#aa9cbf"/><stop offset="0.32" stop-color="#c5bbd3"/><stop offset="0.4" stop-color="#dad4e3"/><stop offset="0.5" stop-color="#ebe7f0"/><stop offset="0.61" stop-color="#f6f5f8"/><stop offset="0.74" stop-color="#fdfdfd"/><stop offset="1" stop-color="#fff"/></radialGradient><radialGradient id="radial-gradient-2" cx="-109.69" cy="435.12" r="825.21" gradientTransform="matrix(1, 0, 0, -1, 0, 369.48)" gradientUnits="userSpaceOnUse"><stop offset="0" stop-color="#a800ad"/><stop offset="1" stop-color="#25005b"/></radialGradient><clipPath id="clip-path-3"><rect class="cls-1" width="575.33" height="369.48" transform="translate(575.33 369.48) rotate(-180)"/></clipPath><radialGradient id="radial-gradient-3" cx="-4851.16" cy="-15.86" r="345.47" gradientTransform="matrix(1, 0, 0, -1, 5196.63, -84.93)" xlink:href="#radial-gradient"/><radialGradient id="radial-gradient-4" cx="-4779.33" cy="-100" r="345.47" gradientTransform="matrix(1, 0, 0, -1, 5196.63, -84.93)" xlink:href="#radial-gradient"/><radialGradient id="radial-gradient-5" cx="-4737.26" cy="-220.79" r="345.47" gradientTransform="matrix(1, 0, 0, -1, 5196.63, -84.93)" xlink:href="#radial-gradient"/><radialGradient id="radial-gradient-6" cx="-4580.25" cy="-266.88" r="345.47" gradientTransform="matrix(1, 0, 0, -1, 5196.63, -84.93)" xlink:href="#radial-gradient"/><radialGradient id="radial-gradient-7" cx="-5224.39" cy="179.77" r="1022.74" gradientTransform="matrix(1, 0, 0, -1, 5196.63, -84.93)" xlink:href="#radial-gradient-2"/><radialGradient id="radial-gradient-8" cx="287.67" cy="373.58" r="345.47" gradientTransform="matrix(-1, 0, 0, 1, 575.33, 0)" xlink:href="#radial-gradient"/><radialGradient id="radial-gradient-9" cx="359.5" cy="289.44" r="345.47" gradientTransform="matrix(-1, 0, 0, 1, 575.33, 0)" xlink:href="#radial-gradient"/><radialGradient id="radial-gradient-10" cx="558.57" cy="122.57" r="345.47" gradientTransform="matrix(-1, 0, 0, 1, 575.33, 0)" xlink:href="#radial-gradient"/><radialGradient id="radial-gradient-11" cx="-85.56" cy="569.22" r="1022.74" gradientTransform="matrix(-1, 0, 0, 1, 575.33, 0)" xlink:href="#radial-gradient-2"/><radialGradient id="radial-gradient-12" cx="416.73" cy="424.89" r="345.47" gradientTransform="matrix(-1, 0, 0, 1, 575.33, 0)" xlink:href="#radial-gradient"/><radialGradient id="radial-gradient-13" cx="488.56" cy="340.75" r="345.47" gradientTransform="matrix(-1, 0, 0, 1, 575.33, 0)" xlink:href="#radial-gradient"/><radialGradient id="radial-gradient-14" cx="687.63" cy="173.87" r="345.47" gradientTransform="matrix(-1, 0, 0, 1, 575.33, 0)" xlink:href="#radial-gradient"/><radialGradient id="radial-gradient-15" cx="43.5" cy="620.52" r="1022.74" gradientTransform="matrix(-1, 0, 0, 1, 575.33, 0)" xlink:href="#radial-gradient-2"/><radialGradient id="radial-gradient-16" cx="-4756.75" cy="40.58" r="345.47" gradientTransform="matrix(1, 0, 0, -1, 5196.63, -84.93)" xlink:href="#radial-gradient"/><radialGradient id="radial-gradient-17" cx="-4684.92" cy="-43.56" r="345.47" gradientTransform="matrix(1, 0, 0, -1, 5196.63, -84.93)" xlink:href="#radial-gradient"/><radialGradient id="radial-gradient-18" cx="-4642.85" cy="-164.35" r="345.47" gradientTransform="matrix(1, 0, 0, -1, 5196.63, -84.93)" xlink:href="#radial-gradient"/><radialGradient id="radial-gradient-19" cx="-4485.85" cy="-210.44" r="345.47" gradientTransform="matrix(1, 0, 0, -1, 5196.63, -84.93)" xlink:href="#radial-gradient"/><radialGradient id="radial-gradient-20" cx="-5129.98" cy="236.21" r="1022.74" gradientTransform="matrix(1, 0, 0, -1, 5196.63, -84.93)" xlink:href="#radial-gradient-2"/><linearGradient id="linear-gradient-2" x1="260" y1="241.08" x2="446.56" y2="32.58" gradientTransform="matrix(-1, 0, 0, 1, 575.33, 0)" xlink:href="#linear-gradient"/><linearGradient id="linear-gradient-3" x1="437.73" y1="239.7" x2="576.31" y2="84.81" gradientTransform="matrix(-1, 0, 0, 1, 575.33, 0)" xlink:href="#linear-gradient"/><linearGradient id="linear-gradient-4" x1="119.47" y1="394.13" x2="258.05" y2="239.24" gradientTransform="matrix(-1, 0, 0, 1, 575.33, 0)" xlink:href="#linear-gradient"/><linearGradient id="linear-gradient-5" x1="140.18" y1="444.04" x2="501.56" y2="40.15" gradientTransform="matrix(-1, 0, 0, 1, 575.33, 0)" xlink:href="#linear-gradient"/><linearGradient id="linear-gradient-6" x1="163.24" y1="173.16" x2="524.61" y2="-230.74" gradientTransform="matrix(-1, 0, 0, 1, 575.33, 0)" xlink:href="#linear-gradient"/><linearGradient id="linear-gradient-7" x1="403.81" y1="372.21" x2="765.19" y2="-31.68" gradientTransform="matrix(-1, 0, 0, 1, 575.33, 0)" xlink:href="#linear-gradient"/><linearGradient id="linear-gradient-8" x1="80.86" y1="103.72" x2="442.23" y2="-300.17" gradientTransform="matrix(-1, 0, 0, 1, 575.33, 0)" xlink:href="#linear-gradient"/><radialGradient id="radial-gradient-21" cx="429.6" cy="250.11" r="11.62" gradientTransform="matrix(-0.45, -0.89, -0.89, 0.45, 562.62, 520.89)" xlink:href="#radial-gradient"/><radialGradient id="radial-gradient-22" cx="575.33" cy="337.65" r="23.3" gradientTransform="matrix(-1, 0, 0, 1, 575.33, 0)" xlink:href="#radial-gradient"/><radialGradient id="radial-gradient-23" cx="1.13" cy="319.29" r="12.71" gradientTransform="matrix(-0.74, -0.67, -0.67, 0.74, 790.54, 84.47)" xlink:href="#radial-gradient"/><radialGradient id="radial-gradient-24" cx="315.95" cy="375.33" r="14.07" gradientTransform="matrix(-0.97, -0.23, -0.23, 0.97, 653.53, 83.19)" xlink:href="#radial-gradient"/><radialGradient id="radial-gradient-25" cx="477.05" cy="107.69" r="23.3" gradientTransform="matrix(-1, 0, 0, 1, 575.33, 0)" xlink:href="#radial-gradient"/><radialGradient id="radial-gradient-26" cx="477.05" cy="88.84" r="69.48" gradientTransform="matrix(-1, 0, 0, 1, 575.33, 0)" gradientUnits="userSpaceOnUse"><stop offset="0.01" stop-color="#097ae7"/><stop offset="0.04" stop-color="#0869c6"/><stop offset="0.08" stop-color="#06539d"/><stop offset="0.13" stop-color="#053f77"/><stop offset="0.18" stop-color="#032e57"/><stop offset="0.24" stop-color="#021f3b"/><stop offset="0.31" stop-color="#011425"/><stop offset="0.39" stop-color="#010b14"/><stop offset="0.49" stop-color="#000509"/><stop offset="0.62" stop-color="#000102"/><stop offset="1"/></radialGradient><radialGradient id="radial-gradient-27" cx="307.17" cy="96.65" r="7.8" gradientTransform="matrix(-1, 0, 0, 1, 575.33, 0)" xlink:href="#radial-gradient"/><radialGradient id="radial-gradient-28" cx="306.26" cy="92.07" r="24.99" xlink:href="#radial-gradient-26"/><radialGradient id="radial-gradient-29" cx="242.66" cy="294.75" r="11.1" gradientTransform="matrix(-0.71, -0.71, -0.71, 0.71, 712.68, 257.92)" xlink:href="#radial-gradient"/><radialGradient id="radial-gradient-30" cx="241.38" cy="288.23" r="35.56" gradientTransform="matrix(-0.39, -0.92, -0.92, 0.39, 693.64, 397.65)" xlink:href="#radial-gradient-26"/><radialGradient id="radial-gradient-31" cx="429.6" cy="243.13" r="45.11" gradientTransform="matrix(-0.99, -0.15, -0.15, 0.99, 606.88, 67.02)" xlink:href="#radial-gradient-26"/><radialGradient id="radial-gradient-32" cx="317.25" cy="363.84" r="69.48" xlink:href="#radial-gradient-26"/></defs><title>bkg</title><g class="cls-2"><g id="BACKGROUND"><g class="cls-3"><path class="cls-4" d="M-528.53,425.25h0a1.86,1.86,0,0,0,2.63-.11L19-174.8a1.86,1.86,0,0,0-.1-2.63h0a1.86,1.86,0,0,0-2.63.11L-528.63,422.62A1.87,1.87,0,0,0-528.53,425.25Z"/></g></g><g id="OBJECTS"><g class="cls-5"><g class="cls-6"><circle class="cls-7" cx="-251.25" cy="136.43" r="345.47"/></g></g></g><g id="Layer_4" data-name="Layer 4"><rect class="cls-8" width="575.33" height="369.48" transform="translate(575.33 369.48) rotate(-180)"/><g class="cls-9"><g class="cls-10"><circle class="cls-11" cx="554.94" cy="31.5" r="1.25"/><circle class="cls-11" cx="501.6" cy="31.5" r="1.25"/><path class="cls-11" d="M447,31.5a1.26,1.26,0,1,0,1.25-1.25A1.26,1.26,0,0,0,447,31.5Z"/><circle class="cls-11" cx="394.92" cy="31.5" r="1.25"/><circle class="cls-11" cx="341.59" cy="31.5" r="1.25"/><path class="cls-11" d="M287,31.5a1.26,1.26,0,1,0,1.26-1.25A1.26,1.26,0,0,0,287,31.5Z"/><circle class="cls-11" cx="234.91" cy="31.5" r="1.25"/><circle class="cls-11" cx="181.57" cy="31.5" r="1.25"/><path class="cls-11" d="M127,31.5a1.26,1.26,0,1,0,1.25-1.25A1.26,1.26,0,0,0,127,31.5Z"/><circle class="cls-11" cx="74.9" cy="31.5" r="1.25"/><circle class="cls-11" cx="21.56" cy="31.5" r="1.25"/><path class="cls-11" d="M553.68,82.58a1.26,1.26,0,1,0,2.51,0,1.26,1.26,0,0,0-2.51,0Z"/><path class="cls-11" d="M500.35,82.58a1.26,1.26,0,1,0,1.25-1.25A1.26,1.26,0,0,0,500.35,82.58Z"/><path class="cls-11" d="M447,82.58a1.26,1.26,0,1,0,1.25-1.25A1.26,1.26,0,0,0,447,82.58Z"/><path class="cls-11" d="M393.67,82.58a1.26,1.26,0,1,0,1.25-1.25A1.26,1.26,0,0,0,393.67,82.58Z"/><path class="cls-11" d="M340.33,82.58a1.26,1.26,0,1,0,1.26-1.25A1.26,1.26,0,0,0,340.33,82.58Z"/><path class="cls-11" d="M287,82.58a1.26,1.26,0,1,0,1.26-1.25A1.26,1.26,0,0,0,287,82.58Z"/><path class="cls-11" d="M233.65,82.58a1.26,1.26,0,1,0,2.51,0,1.26,1.26,0,0,0-2.51,0Z"/><path class="cls-11" d="M180.32,82.58a1.26,1.26,0,1,0,1.25-1.25A1.26,1.26,0,0,0,180.32,82.58Z"/><path class="cls-11" d="M127,82.58a1.26,1.26,0,1,0,1.25-1.25A1.26,1.26,0,0,0,127,82.58Z"/><path class="cls-11" d="M73.64,82.58a1.26,1.26,0,1,0,1.26-1.25A1.26,1.26,0,0,0,73.64,82.58Z"/><path class="cls-11" d="M20.3,82.58a1.26,1.26,0,1,0,1.26-1.25A1.26,1.26,0,0,0,20.3,82.58Z"/><circle class="cls-11" cx="554.94" cy="133.66" r="1.25"/><circle class="cls-11" cx="501.6" cy="133.66" r="1.25"/><path class="cls-11" d="M447,133.66a1.26,1.26,0,1,0,1.25-1.25A1.26,1.26,0,0,0,447,133.66Z"/><circle class="cls-11" cx="394.92" cy="133.66" r="1.25"/><circle class="cls-11" cx="341.59" cy="133.66" r="1.25"/><path class="cls-11" d="M287,133.66a1.26,1.26,0,1,0,1.26-1.25A1.26,1.26,0,0,0,287,133.66Z"/><circle class="cls-11" cx="234.91" cy="133.66" r="1.25"/><circle class="cls-11" cx="181.57" cy="133.66" r="1.25"/><path class="cls-11" d="M127,133.66a1.26,1.26,0,1,0,1.25-1.25A1.26,1.26,0,0,0,127,133.66Z"/><circle class="cls-11" cx="74.9" cy="133.66" r="1.25"/><circle class="cls-11" cx="21.56" cy="133.66" r="1.25"/><circle class="cls-11" cx="554.94" cy="184.74" r="1.25"/><circle class="cls-11" cx="501.6" cy="184.74" r="1.25"/><path class="cls-11" d="M447,184.74a1.26,1.26,0,1,0,1.25-1.25A1.26,1.26,0,0,0,447,184.74Z"/><circle class="cls-11" cx="394.92" cy="184.74" r="1.25"/><circle class="cls-11" cx="341.59" cy="184.74" r="1.25"/><path class="cls-11" d="M287,184.74a1.26,1.26,0,1,0,1.26-1.25A1.26,1.26,0,0,0,287,184.74Z"/><circle class="cls-11" cx="234.91" cy="184.74" r="1.25"/><circle class="cls-11" cx="181.57" cy="184.74" r="1.25"/><path class="cls-11" d="M127,184.74a1.26,1.26,0,1,0,1.25-1.25A1.26,1.26,0,0,0,127,184.74Z"/><circle class="cls-11" cx="74.9" cy="184.74" r="1.25"/><circle class="cls-11" cx="21.56" cy="184.74" r="1.25"/><circle class="cls-11" cx="554.94" cy="235.82" r="1.25"/><circle class="cls-11" cx="501.6" cy="235.82" r="1.25"/><path class="cls-11" d="M447,235.82a1.26,1.26,0,1,0,1.25-1.26A1.25,1.25,0,0,0,447,235.82Z"/><circle class="cls-11" cx="394.92" cy="235.82" r="1.25"/><circle class="cls-11" cx="341.59" cy="235.82" r="1.25"/><path class="cls-11" d="M287,235.82a1.26,1.26,0,1,0,1.26-1.26A1.25,1.25,0,0,0,287,235.82Z"/><circle class="cls-11" cx="234.91" cy="235.82" r="1.25"/><circle class="cls-11" cx="181.57" cy="235.82" r="1.25"/><path class="cls-11" d="M127,235.82a1.26,1.26,0,1,0,1.25-1.26A1.25,1.25,0,0,0,127,235.82Z"/><circle class="cls-11" cx="74.9" cy="235.82" r="1.25"/><circle class="cls-11" cx="21.56" cy="235.82" r="1.25"/><path class="cls-11" d="M553.68,286.9a1.26,1.26,0,1,0,1.26-1.26A1.26,1.26,0,0,0,553.68,286.9Z"/><path class="cls-11" d="M500.35,286.9a1.26,1.26,0,0,0,2.51,0,1.26,1.26,0,1,0-2.51,0Z"/><path class="cls-11" d="M447,286.9a1.26,1.26,0,1,0,1.25-1.26A1.25,1.25,0,0,0,447,286.9Z"/><path class="cls-11" d="M393.67,286.9a1.26,1.26,0,1,0,1.25-1.26A1.25,1.25,0,0,0,393.67,286.9Z"/><path class="cls-11" d="M340.33,286.9a1.26,1.26,0,1,0,1.26-1.26A1.25,1.25,0,0,0,340.33,286.9Z"/><path class="cls-11" d="M287,286.9a1.26,1.26,0,1,0,1.26-1.26A1.25,1.25,0,0,0,287,286.9Z"/><path class="cls-11" d="M233.65,286.9a1.26,1.26,0,1,0,1.26-1.26A1.26,1.26,0,0,0,233.65,286.9Z"/><path class="cls-11" d="M180.32,286.9a1.26,1.26,0,1,0,1.25-1.26A1.25,1.25,0,0,0,180.32,286.9Z"/><path class="cls-11" d="M127,286.9a1.26,1.26,0,1,0,1.25-1.26A1.25,1.25,0,0,0,127,286.9Z"/><path class="cls-11" d="M73.64,286.9a1.26,1.26,0,1,0,1.26-1.26A1.25,1.25,0,0,0,73.64,286.9Z"/><path class="cls-11" d="M20.3,286.9a1.26,1.26,0,1,0,1.26-1.26A1.25,1.25,0,0,0,20.3,286.9Z"/><circle class="cls-11" cx="554.94" cy="337.98" r="1.25"/><circle class="cls-11" cx="501.6" cy="337.98" r="1.25"/><path class="cls-11" d="M447,338a1.26,1.26,0,1,0,1.25-1.26A1.25,1.25,0,0,0,447,338Z"/><circle class="cls-11" cx="394.92" cy="337.98" r="1.25"/><circle class="cls-11" cx="341.59" cy="337.98" r="1.25"/><path class="cls-11" d="M287,338a1.26,1.26,0,1,0,1.26-1.26A1.25,1.25,0,0,0,287,338Z"/><circle class="cls-11" cx="234.91" cy="337.98" r="1.25"/><circle class="cls-11" cx="181.57" cy="337.98" r="1.25"/><path class="cls-11" d="M127,338a1.26,1.26,0,1,0,1.25-1.26A1.25,1.25,0,0,0,127,338Z"/><circle class="cls-11" cx="74.9" cy="337.98" r="1.25"/><circle class="cls-11" cx="21.56" cy="337.98" r="1.25"/></g></g><g class="cls-9"><g class="cls-12"><circle class="cls-13" cx="345.47" cy="-69.07" r="345.47"/><circle class="cls-14" cx="417.3" cy="15.07" r="345.47"/><circle class="cls-15" cx="459.38" cy="135.86" r="345.47"/><circle class="cls-16" cx="616.38" cy="181.95" r="345.47"/><path class="cls-17" d="M626.55,406,107.85-163.52H660.41S825.1,364.41,818.94,362.87,626.55,406,626.55,406Z"/></g><g class="cls-18"><circle class="cls-19" cx="287.67" cy="373.58" r="345.47"/><circle class="cls-20" cx="215.84" cy="289.44" r="345.47"/><circle class="cls-21" cx="16.76" cy="122.57" r="345.47"/><path class="cls-22" d="M6.59-101.45,525.29,468H-27.27S-192-59.89-185.8-58.35,6.59-101.45,6.59-101.45Z"/></g><g class="cls-6"><circle class="cls-23" cx="158.61" cy="424.89" r="345.47"/><circle class="cls-24" cx="86.77" cy="340.75" r="345.47"/><circle class="cls-25" cx="-112.3" cy="173.87" r="345.47"/><path class="cls-26" d="M-122.47-50.14l518.7,569.49H-156.33S-321-8.59-314.87-7-122.47-50.14-122.47-50.14Z"/></g><g class="cls-27"><circle class="cls-28" cx="439.88" cy="-125.51" r="345.47"/><circle class="cls-29" cx="511.71" cy="-41.36" r="345.47"/><circle class="cls-30" cx="553.78" cy="79.42" r="345.47"/><circle class="cls-31" cx="710.79" cy="125.51" r="345.47"/><path class="cls-32" d="M721,349.53,202.26-220H754.82S919.51,308,913.35,306.43,721,349.53,721,349.53Z"/></g></g><g class="cls-9"><path class="cls-33" d="M328,251.31h0a2,2,0,0,1-2.87-.11L108.51,16.83a2,2,0,0,1,.12-2.87h0a2,2,0,0,1,2.87.12L328.09,248.44A2,2,0,0,1,328,251.31Z"/><path class="cls-34" d="M147,247.3h0a1.51,1.51,0,0,1-2.13-.09L-16,73.12A1.52,1.52,0,0,1-15.95,71h0a1.51,1.51,0,0,1,2.13.09l160.9,174.09A1.51,1.51,0,0,1,147,247.3Z"/><path class="cls-35" d="M465.26,401.73h0a1.5,1.5,0,0,1-2.13-.09L302.23,227.55a1.5,1.5,0,0,1,.09-2.13h0a1.5,1.5,0,0,1,2.13.08L465.34,399.59A1.52,1.52,0,0,1,465.26,401.73Z"/><path class="cls-36" d="M457.62,465.67h0a1.43,1.43,0,0,1-2-.08L36.68,4.3a1.44,1.44,0,0,1,.08-2h0a1.43,1.43,0,0,1,2,.08L457.7,463.65A1.43,1.43,0,0,1,457.62,465.67Z"/><path class="cls-37" d="M434.57,194.78h0a1.43,1.43,0,0,1-2-.08L13.63-266.59a1.41,1.41,0,0,1,.08-2h0a1.43,1.43,0,0,1,2,.08L434.65,192.76A1.43,1.43,0,0,1,434.57,194.78Z"/><path class="cls-38" d="M194,393.83h0a1.43,1.43,0,0,1-2-.08L-226.94-67.53a1.43,1.43,0,0,1,.08-2h0a1.42,1.42,0,0,1,2,.08L194.07,391.82A1.42,1.42,0,0,1,194,393.83Z"/><path class="cls-39" d="M517,125.34h0a1.43,1.43,0,0,1-2-.08L96-336a1.43,1.43,0,0,1,.08-2h0a1.43,1.43,0,0,1,2,.08L517,123.32A1.43,1.43,0,0,1,517,125.34Z"/></g><g class="cls-9"><circle class="cls-40" cx="145.73" cy="250.11" r="11.62" transform="translate(-143.22 267.49) rotate(-63.21)"/><circle class="cls-41" cx="145.73" cy="245.86" r="6.34"/><circle class="cls-42" cx="145.73" cy="245.86" r="6.34"/><circle class="cls-43" cy="337.65" r="23.3"/><circle class="cls-44" cy="329.12" r="12.71" transform="translate(-170.32 47.5) rotate(-31.16)"/><circle class="cls-42" cy="329.12" r="12.71" transform="translate(-170.32 47.5) rotate(-31.16)"/><circle class="cls-45" cx="574.2" cy="319.29" r="12.71" transform="translate(-64.98 471.27) rotate(-42.45)"/><path class="cls-46" d="M567.27,314.64a6.93,6.93,0,1,0,6.93-6.94A6.93,6.93,0,0,0,567.27,314.64Z"/><path class="cls-47" d="M567.27,314.64a6.93,6.93,0,1,0,6.93-6.94A6.93,6.93,0,0,0,567.27,314.64Z"/><circle class="cls-48" cx="259.39" cy="375.33" r="14.07" transform="translate(-79.73 70.12) rotate(-13.36)"/><circle class="cls-46" cx="259.39" cy="370.18" r="7.67" transform="translate(-167.94 222.85) rotate(-35.96)"/><circle class="cls-47" cx="259.39" cy="370.18" r="7.67" transform="translate(-167.94 222.85) rotate(-35.96)"/><circle class="cls-49" cx="98.29" cy="107.69" r="23.3"/><circle class="cls-50" cx="98.29" cy="99.16" r="12.71" transform="translate(-19.17 23.68) rotate(-12.53)"/><circle class="cls-42" cx="98.29" cy="99.16" r="12.71" transform="translate(-19.17 23.68) rotate(-12.53)"/><circle class="cls-51" cx="98.29" cy="88.84" r="69.48"/><circle class="cls-52" cx="268.16" cy="96.65" r="7.8"/><path class="cls-53" d="M263.91,93.79a4.26,4.26,0,1,0,4.25-4.26A4.25,4.25,0,0,0,263.91,93.79Z"/><path class="cls-42" d="M263.91,93.79a4.26,4.26,0,1,0,4.25-4.26A4.25,4.25,0,0,0,263.91,93.79Z"/><circle class="cls-54" cx="269.07" cy="92.07" r="24.99"/><circle class="cls-55" cx="332.67" cy="294.75" r="11.1" transform="translate(-110.98 321.56) rotate(-45)"/><circle class="cls-56" cx="332.67" cy="290.68" r="6.06"/><circle class="cls-47" cx="332.67" cy="290.68" r="6.06"/><circle class="cls-57" cx="333.96" cy="288.23" r="35.56" transform="translate(-61.93 482.85) rotate(-66.98)"/><circle class="cls-58" cx="145.73" cy="243.13" r="45.11" transform="translate(-34.74 24.54) rotate(-8.61)"/><circle class="cls-59" cx="258.08" cy="363.84" r="69.48"/></g></g></g></svg>